<?xml version="1.0" encoding="UTF-8"?>
<svg xmlns="http://www.w3.org/2000/svg" viewBox="0 0 2644 2084">
  <defs>
    <style>
      .cls-1 {
        fill: none;
      }
    </style>
  </defs>
  <g id="loop-big-pines">
    <path class="cls-1" d="M696.35,804.85c43.74,10.94,35.56,38.95,57.58,94.83,22.01,55.88,32.18,55.88,0,121.93-32.18,66.04-40.64,44.03-108.38,101.61-67.74,57.58-89.75,49.11-155.8,57.58s-104.99,28.79-115.15-27.1c-10.16-55.88-20.32-140.06,0-155.55,20.32-15.49,27.1-86.61,135.48-132.33,108.38-45.72,145.64-71.12,186.28-60.96Z"/>
  </g>
  <g id="loop-lake-view">
    <path class="cls-1" d="M731.11,755.89c0,25.67-8.4,58.83,8.85,71.66,17.25,12.83,48.66,14.15,75.2,13.27s78.29-43.35,119.43-60.16c41.14-16.81,101.29-36.27,136.24-65.46,34.94-29.19,56.18-53.08,53.08-98.2-3.1-45.12-11.94-90.68-60.16-80.5-48.21,10.17-161.89,65.46-219.4,105.27-57.5,39.81-113.24,97.75-113.24,114.12Z"/>
  </g>
  <g id="loop-cedar-point">
    <path class="cls-1" d="M1616.21,848.34c-29.24,22.56,6.63,107.49,51.75,103.5,45.12-3.98,98.2-3.32,141.99-35.83,43.79-32.51,91.56-98.86,122.08-139.33,30.52-40.47,64.36-88.24,74.31-139.33,9.95-51.09-4.64-103.5-46.44-94.22-41.8,9.29-139.33,45.78-153.93,75.64-14.6,29.86-55.73,114.78-83.6,134.03-27.87,19.24-82.94,77.63-106.16,95.54Z"/>
  </g>
</svg>